<svg xmlns="http://www.w3.org/2000/svg" viewBox="0 0 24 24" id="elementor">
  <path d="M22.35 24H1.65C.74 24 0 23.26 0 22.35V1.65C0 .74.74 0 1.65 0h20.7C23.26 0 24 .74 24 1.65v20.7c0 .91-.74 1.65-1.65 1.65zM1.65 1a.651.651 0 0 0-.65.65v20.7c0 .358.292.65.65.65h20.7c.358 0 .65-.292.65-.65V1.65a.651.651 0 0 0-.65-.65H1.65zm15.463 16.608h-6.135a.5.5 0 0 1-.5-.5v-2.044a.5.5 0 0 1 .5-.5h6.135a.5.5 0 0 1 .5.5v2.044c0 .277-.223.5-.5.5zm-5.634-1h5.135v-1.044h-5.135v1.044zm-2.543 1H6.892a.5.5 0 0 1-.5-.5V6.892a.5.5 0 0 1 .5-.5h2.044a.5.5 0 0 1 .5.5v10.217a.5.5 0 0 1-.5.499zm-1.544-1h1.044V7.392H7.392v9.216zm9.721-3.086h-6.135a.5.5 0 0 1-.5-.5v-2.044a.5.5 0 0 1 .5-.5h6.135a.5.5 0 0 1 .5.5v2.044a.5.5 0 0 1-.5.5zm-5.634-1h5.135v-1.044h-5.135v1.044zm5.634-3.092h-6.135a.5.5 0 0 1-.5-.5V6.886a.5.5 0 0 1 .5-.5h6.135a.5.5 0 0 1 .5.5V8.93c0 .277-.223.5-.5.5zm-5.634-1h5.135V7.386h-5.135V8.43z"></path>
</svg>
